<svg width="300" height="300" viewBox="0 0 300 300" fill="none" xmlns="http://www.w3.org/2000/svg">
<rect width="300" height="300" rx="150" fill="#1F1F1F"/>
<path d="M234.329 150C234.329 196.547 196.548 234.3 149.917 234.3C103.287 234.3 65.5054 196.547 65.5054 150C65.5054 103.454 103.287 65.7 149.917 65.7C196.548 65.7 234.329 103.454 234.329 150Z" stroke="#657982" stroke-width="20"/>
<path fill-rule="evenodd" clip-rule="evenodd" d="M252.592 159.913C247.597 212.129 203.555 253 149.917 253C95.5475 253 51.0359 211.005 47.0603 157.767L27 157.557C30.9089 221.969 84.4465 273 149.917 273C214.517 273 267.499 223.318 272.652 160.122L252.592 159.913ZM47.3776 138.769C52.9805 87.1844 96.7323 47 149.917 47C203.837 47 248.061 88.3018 252.667 140.913L272.747 141.122C268.193 77.3352 214.94 27 149.917 27C85.7678 27 33.0746 75.9922 27.297 138.56L47.3776 138.769Z" fill="white"/>
<path fill-rule="evenodd" clip-rule="evenodd" d="M194.262 160.98C189.341 180.848 171.369 195.6 149.917 195.6C124.668 195.6 104.24 175.162 104.24 150C104.24 124.838 124.668 104.4 149.917 104.4C172.069 104.4 190.509 120.13 194.701 140.98H214.979C210.579 109.018 183.127 84.4001 149.917 84.4001C113.644 84.4001 84.2395 113.77 84.2395 150C84.2395 186.23 113.644 215.6 149.917 215.6C182.444 215.6 209.449 191.983 214.679 160.98H194.262Z" fill="white"/>
</svg>
